# xmcd CD database file
#
# Track frame offsets:
#	150
#	13542
#	29685
#	45882
#	57962
#	71295
#	81132
#	93592
#	111487
#	128010
#
# Disc length: 1933 seconds
#
# Revision: 0
# Processed by: cddbd v1.5.1PL0 Copyright (c) Steve Scherf et al.
# Submitted via: CDex 1.51
#
DISCID=7b078b0a
DTITLE=Various Artist - Country: Inspirations
DYEAR=1900
DGENRE=Country
TTITLE0=01-The Oak Ridge Boys_Lead Me To Calvary
TTITLE1=02-Ray Stevens_Everything Is Beautiful
TTITLE2=03-Roy Acuff_Precious Memories
TTITLE3=04-Don Gibson_Praying Hands
TTITLE4=05-David Houston_When They Ring Those Golden Bells
TTITLE5=06-Jerry Lee Lewis_When The Saints Go Marching In
TTITLE6=07-George Hamilton IV_Family Bible
TTITLE7=08-The Carter Family_Will The Circle Be Unbroken
TTITLE8=09-Dave Dudley_Amazing Grace
TTITLE9=10-Skeeter Davis_Oh Happy Day
EXTD=
EXTT0=
EXTT1=
EXTT2=
EXTT3=
EXTT4=
EXTT5=
EXTT6=
EXTT7=
EXTT8=
EXTT9=
PLAYORDER=
